<svg xmlns="http://www.w3.org/2000/svg" width="68" height="65" clip-rule="evenodd" fill-rule="evenodd">
  <path fill="#BADAF3"
    d="M43.5 13.5v3c-.79.283-1.456.783-2 1.5 2.28 5.415 2.446 10.915.5 16.5-1.845 2.683-4.345 4.35-7.5 5a18.1 18.1 0 0 1 4 4.5c-.959 3.305-.459 6.472 1.5 9.5a60.94 60.94 0 0 1 .5 11h-41v-3l5.5-11a38.44 38.44 0 0 1 5.5-5c2.59-.92 4.59-2.586 6-5v-4h3c.285-1.915-.049-3.581-1-5-3.587-3.85-4.754-8.516-3.5-14C17.853 8.992 23.686 5.492 32.5 7a38.272 38.272 0 0 1 11 6.5Zm-5 5c3.025 6.195 2.358 11.862-2 17h-5c.237 1.291-.096 2.291-1 3-2.67-1.618-5.67-2.285-9-2-.285-1.788.048-3.455 1-5 2.889-1.786 4.389-4.453 4.5-8 .414-.457.914-.79 1.5-1 3.299 4.19 4.965 3.524 5-2 1.28-1.468 2.946-2.135 5-2Z" />
  <path fill="#BADAF3" d="M43.5 13.5c2.057.457 2.057 1.457 0 3v-3Z" />
</svg>