<svg xmlns="http://www.w3.org/2000/svg" width="68" height="140" fill-rule="evenodd" clip-rule="evenodd"
  image-rendering="optimizeQuality" shape-rendering="geometricPrecision" text-rendering="geometricPrecision">
  <path fill="#BADAF3"
    d="m42.5 18.5-2 2c-2.09-1.3-3.42-.62-4 2l-2 1a2.26 2.26 0 0 1-1.5-1 9.88 9.88 0 0 0-2 5c-.92.55-1.76 1.21-2.5 2a11 11 0 0 0 6 3c.6-.12.94-.46 1-1 1.3-.24 2.3.1 3 1-.54.06-.88.4-1 1a16.51 16.51 0 0 1 3 9c-.3 9.08.03 18.08 1 27a149.9 149.9 0 0 0 2 10.5c-.6.46-1.26.63-2 .5h-4c-1-.17-1.66.16-2 1-4.35.17-8.68 0-13-.5a8.8 8.8 0 0 1-4-1.5c.23-5.4.9-10.73 2-16a6.86 6.86 0 0 0 1-5 5.81 5.81 0 0 0-2 4c-3.1 8.73-5.1 17.73-6 27h-4l2-2a21.27 21.27 0 0 1-1-6c-.7-.9-1.7-1.24-3-1a6.86 6.86 0 0 1-1 5c.48-2.78-.52-4.78-3-6a201.57 201.57 0 0 1 14.5-40 18.04 18.04 0 0 0 7.5-8c2.05-.55 2.39-1.55 1-3-4.64-6.31-3.64-11.81 3-16.5 6.05-1.47 11.05.2 15 5a4.3 4.3 0 0 1-2 1.5Z" />
  <path fill="#BADAF3" d="M36.5 22.5c-.21 1.92-.88 2.26-2 1l2-1Z" />
  <path fill="#BADAF3"
    d="M42.5 18.5c.17 4.01 0 8.01-.5 12a3.92 3.92 0 0 1-3.5 2c-.7-.9-1.7-1.24-3-1 1.69-.6 3.19-1.6 4.5-3 .5-2.65.66-5.31.5-8l2-2Z" />
  <path fill="#BADAF3"
    d="m42.5 52.5 16 23c-.34.84-1 1.17-2 1-1.42-1.53-2.1-1.2-2 1-1.33.33-1.33.67 0 1a3 3 0 0 1-2 2 39.32 39.32 0 0 1-10-11 38.64 38.64 0 0 1 0-17Z" />
  <path fill="#BADAF3"
    d="M58.5 75.5c2.62 2.38 2.62 4.88 0 7.5a5.95 5.95 0 0 1-6-2.5 3 3 0 0 0 2-2v-1c2.72 4.2 3.39 3.86 2-1 1 .17 1.66-.16 2-1Z" />
  <path fill="#BADAF3"
    d="M18.5 79.5a8.8 8.8 0 0 0 4 1.5c4.32.5 8.65.67 13 .5a94.21 94.21 0 0 0-15 3v-3a3.1 3.1 0 0 1-3-1c.12-.6.46-.94 1-1Z" />
  <path fill="#BADAF3"
    d="M35.5 81.5c.34-.84 1-1.17 2-1 1.17.84 2.5 1.51 4 2a218.38 218.38 0 0 1 20 44 5.04 5.04 0 0 1 6 0v3c-4 2.06-8 4.23-12 6.5-1.3.49-2.63.66-4 .5v-3a3.1 3.1 0 0 1-3-1c-2.8-7.57-5.3-15.23-7.5-23-2.86-4.4-5.69-8.73-8.5-13 .17-3.71 1.5-6.88 4-9.5-1.5-.5-2.66 0-3.5 1.5a34.08 34.08 0 0 0-1.5 8 53.91 53.91 0 0 1-3.5 14A247.7 247.7 0 0 1 13.5 132a5.37 5.37 0 0 1 3 3.5c-2.45.97-5.11 1.3-8 1l-9-4v-2c1.59-1.13 1.92-2.47 1-4l15.5-23c1.57-6.35 3.07-12.69 4.5-19a94.21 94.21 0 0 1 15-3Z" />
  <path fill="#BADAF3"
    d="M10.5 81.5c-1.15.3-1.82 1.12-2 2.5-.22 2.27.78 3.44 3 3.5l-2 2c-2.41-.2-3.41-1.53-3-4a6.86 6.86 0 0 0 1-5c1.3-.24 2.3.1 3 1Z" />
</svg>