<svg xmlns="http://www.w3.org/2000/svg" width="68" height="59">
  <path fill="#BADAF3"
    d="M42 6a104.024 104.024 0 0 1 5 4c1.311.709 2.638 1.395 4 2-1.152 2.468-2.048 4.048-4 6a86.542 86.542 0 0 0 1 4c.146 2.64.23 5.235.25 7.875l.063 2.105c.036 4.78-.82 7.957-3.313 12.02-2.36 2.36-3.401 2.96-6.75 3.188L36 47v4l1.938.938C40 53 40 53 41 54v5H0c5-5 5-5 7.188-6.938C9.398 49.547 10.126 47.205 11 44h3v-6h-3c-2.938-6.926-3.956-13.499-3-21 1.625-3.313 1.625-3.313 4-6l1.426-1.84C21.084-.517 31.8.05 42 6Zm-7 12-1 10h-4l-1-3c-1.976.155-1.976.155-4 1-.993 2.022-.993 2.022-1.5 4.438-1.045 4.283-1.045 4.283-3.594 5.847L18 37v7c1.957.67 3.916 1.336 5.875 2l3.305 1.125c2.646.974 2.646.974 4.82.875v-5l1.688.625c3.08.5 4.583-.155 7.312-1.625 2.67-2.588 2.998-3.978 3.363-7.75a195.802 195.802 0 0 0-.05-4.25l.01-2.156c-.04-3.758-.24-6.657-2.323-9.844h-7Z" />
</svg>