<svg xmlns="http://www.w3.org/2000/svg" width="512" height="512" fill="none">
	<path fill="#000"
		d="M503.47 290.13H8.53A8.56 8.56 0 0 0 0 298.67v102.4a8.56 8.56 0 0 0 8.53 8.53h494.94a8.56 8.56 0 0 0 8.53-8.53v-102.4c0-4.7-3.84-8.54-8.53-8.54Zm-8.54 102.4H17.07V307.2h25.6v17.07a8.56 8.56 0 0 0 8.53 8.53 8.56 8.56 0 0 0 8.53-8.53V307.2h34.14v34.13c0 4.7 3.84 8.54 8.53 8.54 4.7 0 8.53-3.84 8.53-8.54V307.2h34.14v17.07a8.56 8.56 0 0 0 8.53 8.53 8.56 8.56 0 0 0 8.53-8.53V307.2h34.13v34.13c0 4.7 3.84 8.54 8.54 8.54a8.56 8.56 0 0 0 8.53-8.54V307.2h34.13v17.07a8.56 8.56 0 0 0 8.54 8.53 8.56 8.56 0 0 0 8.53-8.53V307.2h34.13v34.13c0 4.7 3.84 8.54 8.53 8.54a8.57 8.57 0 0 0 8.54-8.54V307.2h34.13v17.07a8.56 8.56 0 0 0 8.53 8.53 8.57 8.57 0 0 0 8.54-8.53V307.2h34.13v34.13c0 4.7 3.84 8.54 8.53 8.54 4.7 0 8.54-3.84 8.54-8.54V307.2h34.13v17.07a8.56 8.56 0 0 0 8.53 8.53 8.57 8.57 0 0 0 8.54-8.53V307.2h25.6v85.33ZM8.53 102.4A8.51 8.51 0 0 0 0 110.93V256a8.53 8.53 0 1 0 17.07 0V110.93a8.52 8.52 0 0 0-8.54-8.53Zm494.94 0a8.5 8.5 0 0 0-8.54 8.53V256a8.53 8.53 0 1 0 17.07 0V110.93a8.52 8.52 0 0 0-8.53-8.53Zm-27.4 79.87-39.68-51.2a7.65 7.65 0 0 0-8.78-2.56c-3.16 1.2-5.2 4.44-5.2 8.02v42.67H89.6v-42.67c0-3.58-2.05-6.82-5.2-8.02a7.55 7.55 0 0 0-8.8 2.56l-39.67 51.2a9.07 9.07 0 0 0-1.8 5.46c0 1.96.6 3.93 1.8 5.46l39.68 51.2a7.72 7.72 0 0 0 6.05 3.08c.94 0 1.8-.17 2.74-.52 3.15-1.2 5.2-4.43 5.2-8.02v-42.66h332.8v42.66c0 3.59 2.05 6.83 5.2 8.02.94.35 1.8.52 2.74.52 2.3 0 4.52-1.11 6.06-3.08l39.68-51.2a8.88 8.88 0 0 0 1.79-5.46 8.9 8.9 0 0 0-1.8-5.46ZM73.74 215.38 52.4 187.73l21.33-27.64v55.3l.01-.01Zm364.54 0v-55.3l21.34 27.65-21.34 27.65Z" />
</svg>